#!OML:ASF H:\Dans Jumps\Project 1\Capture day 1\Session 1\subject.ASF
:FULLY-SPECIFIED
:DEGREES
164
root 0.432136 14.6402 -16.4511 35.8843 -1.83209 -3.4592
lowerback 33.2886 1.155 -1.76764
upperback 3.61356 1.16224 2.37626
thorax -13.2173 0.638081 3.05053
lowerneck -21.0383 0.556626 -2.3758
upperneck -3.93334 1.32427 -0.964343
head 2.32468 0.64635 0.21311
rclavicle 3.57812e-015 -9.64106e-015
rhumerus -56.5005 -16.3787 -57.8952
rradius 24.5877
rwrist 30.3378
rhand -13.8508 -20.9014
rfingers 7.12502
rthumb 12.2729 -50.5213
lclavicle 3.57812e-015 -9.64106e-015
lhumerus -57.4681 -2.19358 78.9795
lradius 20.2672
lwrist 23.6828
lhand -24.0869 -4.58267
lfingers 7.12502
lthumb 2.39344 25.3837
rfemur -85.7932 0.854096 22.7938
rtibia 73.5067
rfoot -26.7857 -10.9846
rtoes -2.60684
lfemur -86.434 6.84146 -22.2345
ltibia 74.0483
lfoot -22.715 18.4357
ltoes -13.8945
165
root 0.425468 14.5675 -16.4713 36.2612 -1.72617 -3.46467
lowerback 34.5279 1.24275 -1.77904
upperback 3.52212 1.25669 2.38978
thorax -13.8318 0.684091 3.02573
lowerneck -21.0115 0.503262 -2.39085
upperneck -4.69666 1.24377 -0.95559
head 2.05167 0.617022 0.207627
rclavicle -5.46658e-015 1.49089e-016
rhumerus -58.0485 -16.3563 -57.1002
rradius 24.3562
rwrist 30.6328
rhand -13.8676 -20.7152
rfingers 7.12502
rthumb 12.2567 -50.336
lclavicle -5.46658e-015 1.49089e-016
lhumerus -58.9316 -1.80019 78.7665
lradius 19.8333
lwrist 23.3742
lhand -23.8424 -4.72069
lfingers 7.12502
lthumb 2.62954 25.2428
rfemur -86.7988 0.914221 22.8169
rtibia 74.3609
rfoot -27.1394 -11.4913
rtoes -2.5121
lfemur -87.4435 6.68937 -22.16
ltibia 74.8826
lfoot -22.9211 18.8522
ltoes -13.7729
166
root 0.417888 14.5005 -16.4873 36.5208 -1.61033 -3.46135
lowerback 35.8943 1.33516 -1.79241
upperback 3.44122 1.35418 2.40854
thorax -14.4733 0.730363 3.00387
lowerneck -20.9593 0.442785 -2.42131
upperneck -5.46835 1.15623 -0.924057
head 1.7731 0.585305 0.211799
rclavicle 4.96962e-016 -5.46658e-016
rhumerus -59.5267 -16.3193 -56.3542
rradius 24.1041
rwrist 30.7147
rhand -13.8956 -20.5643
rfingers 7.12502
rthumb 12.2297 -50.1868
lclavicle 4.96962e-016 -5.46658e-016
lhumerus -60.352 -1.43388 78.5616
lradius 19.4014
lwrist 23.0907
lhand -23.6848 -4.92147
lfingers 7.12502
lthumb 2.78175 25.0401
rfemur -87.624 0.941767 22.8593
rtibia 75.1731
rfoot -27.5142 -11.9956
rtoes -2.38376
lfemur -88.2755 6.57094 -22.1034
ltibia 75.6694
lfoot -23.1321 19.2413
ltoes -13.6462
167
root 0.411034 14.4364 -16.4999 36.7161 -1.51321 -3.46979
lowerback 37.3883 1.44002 -1.8009
upperback 3.29815 1.46441 2.42245
thorax -15.108 0.780096 2.97204
lowerneck -20.8853 0.380077 -2.44632
upperneck -6.26055 1.0638 -0.890226
head 1.4858 0.55126 0.21539
rclavicle 6.26172e-015 7.35503e-015
rhumerus -60.9165 -16.2735 -55.6725
rradius 23.8432
rwrist 30.5897
rhand -13.9562 -20.4605
rfingers 7.12502
rthumb 12.1713 -50.0864
lclavicle 6.26172e-015 7.35503e-015
lhumerus -61.7271 -1.11418 78.3985
lradius 19.0025
lwrist 22.8585
lhand -23.5328 -5.13297
lfingers 7.12502
lthumb 2.92859 24.8267
rfemur -88.3443 0.95719 22.9271
rtibia 75.948
rfoot -27.8933 -12.4528
rtoes -2.24102
lfemur -89.0087 6.50038 -22.0656
ltibia 76.4244
lfoot -23.3243 19.6035
ltoes -13.5072
168
root 0.403157 14.3766 -16.5078 36.8413 -1.41341 -3.48017
lowerback 38.855 1.55236 -1.82041
upperback 3.24649 1.5804 2.44763
thorax -15.7285 0.831259 2.94772
lowerneck -20.7918 0.316676 -2.45884
upperneck -7.07602 0.967056 -0.867618
head 1.18957 0.514519 0.212949
rclavicle 1.54058e-015 3.70236e-015
rhumerus -62.2205 -16.2024 -55.0706
rradius 23.5972
rwrist 30.3591
rhand -14.0249 -20.3811
rfingers 7.12502
rthumb 12.1051 -50.0109
lclavicle 1.54058e-015 3.70236e-015
lhumerus -63.0712 -0.875832 78.3366
lradius 18.6753
lwrist 22.7424
lhand -23.3594 -5.3119
lfingers 7.12502
lthumb 3.096 24.6454
rfemur -88.9397 0.958712 23.014
rtibia 76.6876
rfoot -28.2869 -12.8626
rtoes -2.06728
lfemur -89.6267 6.47248 -22.0461
ltibia 77.1448
lfoot -23.5025 19.9339
ltoes -13.3827
169
root 0.395651 14.3175 -16.5117 36.9797 -1.33204 -3.51147
lowerback 40.2607 1.67728 -1.84143
upperback 3.20296 1.71045 2.47522
thorax -16.3014 0.886704 2.91869
lowerneck -20.6802 0.255341 -2.44905
upperneck -7.9126 0.867332 -0.869304
head 0.885668 0.475084 0.198903
rclavicle -1.25234e-014 -4.79568e-015
rhumerus -63.4445 -16.1217 -54.5306
rradius 23.3606
rwrist 30.2052
rhand -14.1294 -20.2875
rfingers 7.12502
rthumb 12.0043 -49.9233
lclavicle -1.25234e-014 -4.79568e-015
lhumerus -64.3542 -0.670157 78.3311
lradius 18.3842
lwrist 22.6516
lhand -23.1917 -5.46865
lfingers 7.12502
lthumb 3.25793 24.4862
rfemur -89.5214 0.967145 23.1248
rtibia 77.3993
rfoot -28.6687 -13.2068
rtoes -1.88431
lfemur -90.2423 6.49188 -22.0408
ltibia 77.8491
lfoot -23.6552 20.2343
ltoes -13.2437
